<svg xmlns="http://www.w3.org/2000/svg" viewBox="0 0 2400 4180" width="2400" height="4180" role="img" aria-labelledby="diagram-title diagram-desc">
  <title id="diagram-title">Dota Router high-level design</title>
  <desc id="diagram-desc">A source-backed high-level flow of Dota Router configuration, adapter-specific navigation, and the shared RouterUtils route matching and rendering pipeline.</desc>

  <defs>
    <marker id="arrow-solid" viewBox="0 0 10 10" refX="10" refY="5" markerWidth="10" markerHeight="10" orient="auto" markerUnits="userSpaceOnUse">
      <path d="M 0 0 L 10 5 L 0 10 z" fill="#64748b"/>
    </marker>
    <marker id="arrow-async" viewBox="0 0 10 10" refX="10" refY="5" markerWidth="10" markerHeight="10" orient="auto" markerUnits="userSpaceOnUse">
      <path d="M 0 0 L 10 5 L 0 10 z" fill="#7c3aed"/>
    </marker>
    <style>
      <![CDATA[
        svg { background: #ffffff; text-rendering: geometricPrecision; }
        text { font-family: "DM Sans", "Poppins", Helvetica, Arial, sans-serif; fill: #1f2937; }
        .title { font-size: 36px; font-weight: 700; letter-spacing: -0.025em; }
        .subtitle { font-size: 18px; fill: #526174; }
        .section-title { font-size: 18px; font-weight: 700; letter-spacing: 0.05em; fill: #334155; }
        .lane-title { font-size: 20px; font-weight: 700; fill: #334155; }
        .lane-subtitle { font-size: 15px; fill: #64748b; }
        .card-label { font-size: 16px; font-weight: 700; fill: #1f2937; }
        .annotation { font-size: 14px; fill: #526174; }
        .branch { font-size: 14px; font-weight: 700; fill: #334155; }
        .terminal-label { font-size: 15px; font-weight: 700; fill: #1f2937; }
        .terminal-detail { font-size: 13px; fill: #64748b; }
        .legend-label { font-size: 15px; fill: #526174; }
        .source { font-size: 13px; fill: #64748b; }
        .connector { fill: none; stroke: #64748b; stroke-width: 2.5; stroke-linecap: round; stroke-linejoin: round; marker-end: url(#arrow-solid); }
        .connector-async { fill: none; stroke: #7c3aed; stroke-width: 2.5; stroke-dasharray: 10 8; stroke-linecap: round; stroke-linejoin: round; marker-end: url(#arrow-async); }
        .connector-plain { fill: none; stroke: #94a3b8; stroke-width: 2.5; stroke-linecap: round; stroke-linejoin: round; }
        .card { width: 380px; height: 72px; fill: #ffffff; stroke: #cbd5e1; stroke-width: 2; rx: 10; }
        .entry { fill: #eef2ff; stroke: #3157c9; }
        .process { fill: #ffffff; stroke: #cbd5e1; }
        .decision { fill: #fffaf0; stroke: #d6a24e; }
        .effect { fill: #f0fdf4; stroke: #9ac7a3; }
        .skip { fill: #f8fafc; stroke: #94a3b8; }
        .section-panel { fill: #ffffff; stroke: #e2e8f0; stroke-width: 1.5; }
        .history-panel { fill: #f8fbff; stroke: #d6e3f4; stroke-width: 1.5; }
        .navigation-panel { fill: #fbf9ff; stroke: #e6ddf5; stroke-width: 1.5; }
      ]]>
    </style>
  </defs>

  <rect x="0" y="0" width="2400" height="4180" fill="#ffffff"/>
  <rect x="80" y="54" width="310" height="34" rx="17" fill="#eef2ff"/>
  <text x="235" y="77" text-anchor="middle" class="section-title" fill="#3157c9">ROUTING FLOW · HLD</text>
  <text x="80" y="132" class="title">Dota Router · high-level design</text>
  <text x="80" y="168" class="subtitle">Configuration assembly → adapter-specific navigation → shared route resolution and custom-element rendering</text>
  <rect x="80" y="193" width="2240" height="6" rx="3" fill="#dbe4ee"/>

  <!-- Configuration section -->
  <rect x="60" y="230" width="2280" height="760" rx="24" class="section-panel"/>
  <rect x="60" y="230" width="12" height="760" rx="6" fill="#3157c9"/>
  <text x="100" y="278" class="section-title">01 / CONFIGURE AND BOOTSTRAP</text>
  <text x="100" y="307" class="lane-subtitle">DotaRouterService accepts a ready route tree or component classes carrying @Route metadata.</text>

  <rect x="100" y="390" width="380" height="72" class="card entry"/>
  <text x="290" y="434" text-anchor="middle" class="card-label">fromComponents(config)</text>

  <rect x="580" y="390" width="380" height="72" class="card decision"/>
  <text x="770" y="434" text-anchor="middle" class="card-label">routes supplied &amp; non-empty?</text>

  <rect x="1060" y="310" width="380" height="72" class="card process"/>
  <text x="1250" y="354" text-anchor="middle" class="card-label">use config.routes</text>
  <text x="1250" y="404" text-anchor="middle" class="annotation">explicit RouteConfig[]</text>

  <rect x="1060" y="530" width="380" height="72" class="card decision"/>
  <text x="1250" y="574" text-anchor="middle" class="card-label">components supplied &amp; non-empty?</text>

  <rect x="1060" y="710" width="380" height="72" class="card process"/>
  <text x="1250" y="754" text-anchor="middle" class="card-label">prepareConfig(components)</text>
  <text x="1250" y="804" text-anchor="middle" class="annotation">Route metadata → root “/” → addRoute recursion</text>
  <text x="1250" y="824" text-anchor="middle" class="annotation">missing parents receive UnknownComponent</text>

  <rect x="580" y="710" width="380" height="72" class="card skip"/>
  <text x="770" y="754" text-anchor="middle" class="terminal-label">throw Error(...)</text>
  <text x="770" y="804" text-anchor="middle" class="terminal-detail">elements are required to create a RouterService</text>

  <rect x="1550" y="390" width="380" height="72" class="card process"/>
  <text x="1740" y="434" text-anchor="middle" class="card-label">new DotaRouterService(...)</text>

  <rect x="1550" y="530" width="380" height="72" class="card process"/>
  <text x="1740" y="574" text-anchor="middle" class="card-label">service.init()</text>

  <rect x="1550" y="710" width="380" height="72" class="card process"/>
  <text x="1740" y="754" text-anchor="middle" class="card-label">new Router(routes, ...)</text>
  <text x="1740" y="804" text-anchor="middle" class="annotation">validates routes, registers listeners, renders current pathname</text>

  <path d="M 480 426 H 580" class="connector"/>
  <path d="M 960 426 H 1010 V 346 H 1060" class="connector"/>
  <text x="982" y="410" class="branch">yes</text>
  <path d="M 770 462 V 490 H 1250 V 530" class="connector"/>
  <text x="790" y="485" class="branch">no</text>
  <path d="M 1250 602 V 710" class="connector"/>
  <text x="1270" y="662" class="branch">yes</text>
  <path d="M 1060 566 H 1010 V 746 H 960" class="connector"/>
  <text x="980" y="550" class="branch">no</text>
  <path d="M 1440 346 H 1500 V 426 H 1550" class="connector"/>
  <path d="M 1440 746 H 1500 V 426 H 1550" class="connector"/>
  <path d="M 1740 462 V 530" class="connector"/>
  <path d="M 1740 602 V 710" class="connector"/>

  <!-- Adapter section -->
  <rect x="60" y="1030" width="2280" height="1050" rx="24" class="section-panel"/>
  <rect x="60" y="1030" width="12" height="1050" rx="6" fill="#7c3aed"/>
  <text x="100" y="1078" class="section-title">02 / NAVIGATION ADAPTERS</text>
  <text x="100" y="1107" class="lane-subtitle">One adapter is selected by the application; both implementations feed the same rendering pipeline.</text>

  <rect x="60" y="1160" width="900" height="900" rx="20" class="history-panel"/>
  <rect x="1440" y="1160" width="900" height="900" rx="20" class="navigation-panel"/>
  <rect x="100" y="1190" width="226" height="32" rx="16" fill="#dbe5ff"/>
  <text x="213" y="1212" text-anchor="middle" class="lane-title" fill="#3157c9">DomHistoryRouter</text>
  <text x="100" y="1248" class="lane-subtitle">History API · pushState + popstate</text>
  <rect x="1480" y="1190" width="260" height="32" rx="16" fill="#e9ddff"/>
  <text x="1610" y="1212" text-anchor="middle" class="lane-title" fill="#7c3aed">DomNavigationRouter</text>
  <text x="1480" y="1248" class="lane-subtitle">Navigation API · navigate + intercept</text>

  <rect x="1010" y="1040" width="380" height="72" class="card entry"/>
  <text x="1200" y="1084" text-anchor="middle" class="card-label">service.route(path)</text>
  <text x="1200" y="1134" text-anchor="middle" class="annotation">delegates to the active adapter</text>

  <rect x="100" y="1300" width="380" height="72" class="card process"/>
  <text x="290" y="1344" text-anchor="middle" class="card-label">new DomHistoryRouter(...)</text>
  <rect x="100" y="1470" width="380" height="72" class="card process"/>
  <text x="290" y="1514" text-anchor="middle" class="card-label">init(): register popstate</text>
  <text x="290" y="1564" text-anchor="middle" class="annotation">constructor also renders window.location.pathname</text>
  <rect x="560" y="1470" width="380" height="72" class="card process"/>
  <text x="750" y="1514" text-anchor="middle" class="card-label">initial URL.pathname</text>
  <text x="750" y="1564" text-anchor="middle" class="annotation">direct call to RouterUtils.render</text>
  <rect x="100" y="1640" width="380" height="72" class="card effect"/>
  <text x="290" y="1684" text-anchor="middle" class="card-label">route(path) → pushState</text>
  <text x="290" y="1734" text-anchor="middle" class="annotation">normalize “/” → dispatch popstate</text>
  <rect x="100" y="1810" width="380" height="72" class="card process"/>
  <text x="290" y="1854" text-anchor="middle" class="card-label">popstate event → render</text>
  <text x="290" y="1904" text-anchor="middle" class="annotation">preventDefault(); read pathname</text>

  <rect x="1480" y="1300" width="380" height="72" class="card process"/>
  <text x="1670" y="1344" text-anchor="middle" class="card-label">new DomNavigationRouter(...)</text>
  <rect x="1480" y="1470" width="380" height="72" class="card process"/>
  <text x="1670" y="1514" text-anchor="middle" class="card-label">init(): register navigate</text>
  <text x="1670" y="1564" text-anchor="middle" class="annotation">constructor also renders window.location.pathname</text>
  <rect x="1960" y="1470" width="380" height="72" class="card process"/>
  <text x="2150" y="1514" text-anchor="middle" class="card-label">initial URL.pathname</text>
  <text x="2150" y="1564" text-anchor="middle" class="annotation">direct call to RouterUtils.render</text>
  <rect x="1480" y="1640" width="380" height="72" class="card effect"/>
  <text x="1670" y="1684" text-anchor="middle" class="card-label">route(path) → navigate(url)</text>
  <text x="1670" y="1734" text-anchor="middle" class="annotation">normalize leading slash</text>
  <rect x="1480" y="1770" width="380" height="72" class="card decision"/>
  <text x="1670" y="1814" text-anchor="middle" class="card-label">can intercept &amp;&amp; safe request?</text>
  <text x="1670" y="1864" text-anchor="middle" class="annotation">not a hash change or download</text>
  <rect x="1960" y="1770" width="380" height="72" class="card skip"/>
  <text x="2150" y="1814" text-anchor="middle" class="card-label">ignore navigation event</text>
  <rect x="1480" y="1920" width="380" height="72" class="card process"/>
  <text x="1670" y="1964" text-anchor="middle" class="card-label">intercept({handler})</text>
  <text x="1910" y="2014" text-anchor="start" class="annotation">async handler calls RouterUtils.render</text>

  <path d="M 1740 782 V 1000 H 290 V 1300" class="connector"/>
  <text x="450" y="800" class="branch">History implementation</text>
  <path d="M 1740 782 V 1000 H 1670 V 1300" class="connector"/>
  <text x="1770" y="800" class="branch">Navigation implementation</text>
  <path d="M 290 1372 V 1470" class="connector"/>
  <path d="M 480 1336 H 510 V 1430 H 750 V 1470" class="connector"/>
  <path d="M 290 1542 V 1640" class="connector"/>
  <path d="M 1200 1112 V 1150 H 70 V 1450 H 290 V 1470" class="connector"/>
  <text x="760" y="1432" class="branch">active adapter</text>
  <path d="M 290 1712 V 1810" class="connector"/>
  <path d="M 1670 1372 V 1470" class="connector"/>
  <path d="M 1860 1336 H 1890 V 1430 H 2150 V 1470" class="connector"/>
  <path d="M 1670 1542 V 1640" class="connector"/>
  <path d="M 1200 1112 V 1150 H 2370 V 1600 H 1670 V 1640" class="connector"/>
  <text x="1900" y="1582" class="branch">active adapter</text>
  <path d="M 1670 1712 V 1770" class="connector"/>
  <path d="M 1860 1806 H 1960" class="connector"/>
  <text x="1885" y="1790" class="branch">no</text>
  <path d="M 1670 1842 V 1920" class="connector"/>
  <text x="1690" y="1888" class="branch">yes</text>

  <!-- Shared render section -->
  <rect x="60" y="2080" width="2280" height="1600" rx="24" class="section-panel"/>
  <rect x="60" y="2080" width="12" height="1600" rx="6" fill="#0f766e"/>
  <text x="100" y="2128" class="section-title">03 / SHARED ROUTE RESOLUTION AND RENDERING</text>
  <text x="100" y="2157" class="lane-subtitle">Both adapters provide a pathname and router context to the same RouterUtils pipeline.</text>
  <line x1="100" y1="2184" x2="2300" y2="2184" stroke="#dbe4ee" stroke-width="1.5"/>

  <rect x="1010" y="2240" width="380" height="72" class="card entry"/>
  <text x="1200" y="2284" text-anchor="middle" class="card-label">navigation event supplies pathname</text>
  <rect x="1010" y="2410" width="380" height="72" class="card process"/>
  <text x="1200" y="2454" text-anchor="middle" class="card-label">RouterUtils.render(config)</text>
  <rect x="1010" y="2580" width="380" height="72" class="card decision"/>
  <text x="1200" y="2624" text-anchor="middle" class="card-label">root element found?</text>
  <rect x="1510" y="2580" width="380" height="72" class="card skip"/>
  <text x="1700" y="2624" text-anchor="middle" class="card-label">log error → return</text>
  <text x="1700" y="2674" text-anchor="middle" class="terminal-detail">root metadata selector not found</text>

  <rect x="1010" y="2750" width="380" height="72" class="card decision"/>
  <text x="1200" y="2794" text-anchor="middle" class="card-label">path === “/error”?</text>
  <rect x="1510" y="2750" width="380" height="72" class="card decision"/>
  <text x="1700" y="2794" text-anchor="middle" class="card-label">error component metadata?</text>
  <rect x="1510" y="2920" width="380" height="72" class="card effect"/>
  <text x="1700" y="2964" text-anchor="middle" class="card-label">render error element</text>
  <text x="1700" y="3014" text-anchor="middle" class="annotation">message option or “Path not found”</text>

  <rect x="1010" y="2920" width="380" height="72" class="card process"/>
  <text x="1200" y="2964" text-anchor="middle" class="card-label">findRoute(path, routes)</text>
  <text x="1200" y="3014" text-anchor="middle" class="annotation">exact → prefix + children → recursive lookup → parent fallback</text>

  <rect x="1010" y="3090" width="380" height="72" class="card decision"/>
  <text x="1200" y="3134" text-anchor="middle" class="card-label">route found?</text>
  <rect x="1510" y="3090" width="380" height="72" class="card skip"/>
  <text x="1700" y="3134" text-anchor="middle" class="card-label">route(router, “/error”)</text>
  <text x="1700" y="3184" text-anchor="middle" class="terminal-detail">normalize slash; delegate redirect to adapter</text>

  <rect x="1010" y="3260" width="380" height="72" class="card decision"/>
  <text x="1200" y="3304" text-anchor="middle" class="card-label">route.render exists?</text>
  <rect x="1510" y="3260" width="380" height="72" class="card effect"/>
  <text x="1700" y="3304" text-anchor="middle" class="card-label">route.render(path)</text>
  <text x="1700" y="3354" text-anchor="middle" class="annotation">custom rendering owns the DOM effect</text>

  <rect x="1010" y="3430" width="380" height="72" class="card decision"/>
  <text x="1200" y="3474" text-anchor="middle" class="card-label">component metadata exists?</text>
  <rect x="1510" y="3430" width="380" height="72" class="card effect"/>
  <text x="1700" y="3474" text-anchor="middle" class="card-label">replace root.innerHTML</text>
  <text x="1700" y="3524" text-anchor="middle" class="annotation">&lt;component-selector path="path"&gt;</text>
  <rect x="1510" y="3590" width="380" height="72" class="card skip"/>
  <text x="1700" y="3634" text-anchor="middle" class="card-label">log component error</text>

  <path d="M 1200 2312 V 2410" class="connector"/>
  <path d="M 1200 2482 V 2580" class="connector"/>
  <path d="M 1390 2616 H 1510" class="connector"/>
  <text x="1412" y="2600" class="branch">no</text>
  <path d="M 1200 2652 V 2750" class="connector"/>
  <text x="1220" y="2708" class="branch">yes</text>
  <path d="M 1390 2786 H 1510" class="connector"/>
  <text x="1412" y="2770" class="branch">yes</text>
  <path d="M 1700 2822 V 2920" class="connector"/>
  <text x="1720" y="2876" class="branch">yes</text>
  <path d="M 1510 2786 H 1450 V 2956 H 1390" class="connector"/>
  <text x="1458" y="2870" class="branch">no: log + continue</text>
  <path d="M 1200 2822 V 2920" class="connector"/>
  <text x="1220" y="2878" class="branch">no</text>
  <path d="M 1200 2992 V 3090" class="connector"/>
  <path d="M 1390 3126 H 1510" class="connector"/>
  <text x="1412" y="3110" class="branch">no</text>
  <path d="M 1200 3162 V 3260" class="connector"/>
  <text x="1220" y="3218" class="branch">yes</text>
  <path d="M 1390 3296 H 1510" class="connector"/>
  <text x="1412" y="3280" class="branch">yes</text>
  <path d="M 1200 3332 V 3430" class="connector"/>
  <text x="1220" y="3388" class="branch">no</text>
  <path d="M 1390 3466 H 1510" class="connector"/>
  <text x="1412" y="3450" class="branch">yes</text>
  <path d="M 1200 3502 V 3550 H 1450 V 3626 H 1510" class="connector"/>
  <text x="1220" y="3540" class="branch">no</text>

  <!-- Adapter-to-shared fan-in: plain segments converge before the entry arrow. -->
  <path d="M 750 1542 V 1950 H 1200 V 2240" class="connector-plain"/>
  <path d="M 290 1882 V 1980 H 1200 V 2240" class="connector-plain"/>
  <path d="M 2150 1542 H 2370 V 2040 H 1200 V 2240" class="connector-plain"/>
  <path d="M 1670 1992 V 2040 H 1200 V 2240" class="connector-async"/>
  <circle cx="1200" cy="2190" r="8" fill="#0f766e"/>
  <path d="M 1200 2190 V 2240" class="connector"/>

  <!-- Footer -->
  <rect x="60" y="3730" width="2280" height="360" rx="24" class="section-panel"/>
  <rect x="60" y="3730" width="12" height="360" rx="6" fill="#64748b"/>
  <text x="100" y="3780" class="section-title">READING THE DIAGRAM</text>
  <text x="100" y="3810" class="lane-subtitle">Color describes the kind of step; line style describes how control moves.</text>

  <line x1="120" y1="3870" x2="210" y2="3870" stroke="#64748b" stroke-width="3" marker-end="url(#arrow-solid)"/>
  <text x="240" y="3876" class="legend-label">solid arrow · synchronous control flow</text>
  <line x1="120" y1="3924" x2="210" y2="3924" stroke="#7c3aed" stroke-width="3" stroke-dasharray="10 8" marker-end="url(#arrow-async)"/>
  <text x="240" y="3930" class="legend-label">dashed purple arrow · async Navigation API handler</text>

  <rect x="920" y="3848" width="30" height="30" rx="8" fill="#eef2ff" stroke="#3157c9" stroke-width="2"/>
  <text x="980" y="3871" class="legend-label">entry / trigger</text>
  <rect x="920" y="3902" width="30" height="30" rx="8" fill="#ffffff" stroke="#cbd5e1" stroke-width="2"/>
  <text x="980" y="3925" class="legend-label">processing</text>
  <rect x="920" y="3956" width="30" height="30" rx="8" fill="#fffaf0" stroke="#d6a24e" stroke-width="2"/>
  <text x="980" y="3979" class="legend-label">decision / guard</text>

  <rect x="1530" y="3848" width="30" height="30" rx="8" fill="#f0fdf4" stroke="#9ac7a3" stroke-width="2"/>
  <text x="1590" y="3871" class="legend-label">DOM or browser-state effect</text>
  <rect x="1530" y="3902" width="30" height="30" rx="8" fill="#f8fafc" stroke="#94a3b8" stroke-width="2"/>
  <text x="1590" y="3925" class="legend-label">skip, log, or terminal outcome</text>

  <text x="100" y="4028" class="source">Source: packages/libs/dota-router/src/DotaRouterService.ts · RouterUtils.ts · dom-history.router.ts · dom-navigation.router.ts · route.decorator.ts · Types.ts</text>
  <text x="100" y="4052" class="source">Behavior note: defaultRoute is stored and passed to adapters, while current rendering is driven by window.location.pathname and RouterUtils.findRoute().</text>
  <text x="100" y="4076" class="source">Utility note: getCurrentPath() reads window.location.pathname; getPreviousPath() reads the Navigation API entry list; getChildPath() drives recursive child lookup.</text>
</svg>
